<svg width="18" height="18" viewBox="0 0 18 18" fill="none" xmlns="http://www.w3.org/2000/svg">
<path d="M17.6401 9.20455C17.6401 8.56818 17.5826 7.96591 17.4765 7.38636H9.00008V10.8409H13.8433C13.6364 11.9886 13.0015 12.9659 12.0455 13.625V15.8182H14.4833C16.4537 14.1023 17.6401 11.8864 17.6401 9.20455Z" fill="#4285F4"/>
<path d="M9.00008 18C11.4379 18 13.4773 17.1932 14.4833 15.8182L12.0455 13.625C11.2595 14.1705 10.2296 14.5227 9.00008 14.5227C6.85367 14.5227 5.04397 13.0818 4.36624 11.1705H1.83871V13.4318C2.84808 15.4545 5.69326 18 9.00008 18Z" fill="#34A853"/>
<path d="M4.36616 11.1705C4.18144 10.6364 4.07917 10.0682 4.07917 9.47727C4.07917 8.88636 4.18144 8.31818 4.36616 7.78409V5.52273H1.83864C1.03523 7.07955 0.580872 8.67045 0.580872 10.4091C0.580872 12.1477 1.03523 13.7386 1.83864 15.2955L4.36616 13.0341V11.1705Z" fill="#FBBC05"/>
<path d="M9.00008 4.43182C10.3196 4.43182 11.5076 4.90909 12.4804 5.85227L14.5436 3.89773C13.4728 2.92045 11.4379 2.18182 9.00008 2.18182C5.69326 2.18182 2.84808 4.54545 1.83871 6.56818L4.36624 8.82955C5.04397 6.91818 6.85367 5.47727 9.00008 5.47727V4.43182Z" fill="#EA4335"/>
</svg>
