<svg width="100" height="40" viewBox="0 0 100 40" fill="none" xmlns="http://www.w3.org/2000/svg">
<g clip-path="url(#clip0_10_1)">
<path d="M19.9312 27.9817H11.3472C10.9712 27.9817 10.6582 27.7237 10.5952 27.3547L7.31416 6.23571C7.25616 5.89671 7.51016 5.56271 7.85316 5.56271H17.0832C17.4262 5.56271 17.6802 5.89671 17.7382 6.23571L19.0212 14.2507C19.0792 14.5897 19.3922 14.8477 19.7682 14.8477H20.3302C22.3582 14.8477 24.1132 13.7977 24.9952 12.1887L25.4952 11.2407C25.6182 10.9917 25.9042 10.8527 26.1992 10.8967L29.2492 11.3207C29.5082 11.3587 29.6712 11.5997 29.6082 11.8477L25.6132 26.9507C25.4752 27.4897 25.0032 27.8797 24.4462 27.8797H17.4962C17.1062 27.8797 16.7512 27.5907 16.6882 27.2067L16.4672 25.9617C16.4042 25.5887 16.7082 25.2577 17.0932 25.2577H18.1542C18.9602 25.2577 19.6742 24.7017 19.8732 23.9187L20.5722 21.2427C20.7152 20.7187 21.1812 20.3437 21.7432 20.3437H22.6972C24.4522 20.3437 26.0542 19.0947 26.4352 17.3557L26.7002 16.1607C26.7272 16.0367 26.6332 15.9197 26.5102 15.9197H25.5352C24.7882 15.9197 24.1262 16.4177 23.9362 17.1437L23.0692 20.3927C22.9262 20.9167 22.4602 21.2917 21.8982 21.2917H20.9442C19.5542 21.2917 18.3892 20.2707 18.2082 18.8997L16.7602 8.31271C16.6882 7.74071 16.2212 7.31771 15.6542 7.31771H12.8992C12.3322 7.31771 11.8652 7.74071 11.7932 8.31271L9.31316 25.9767C9.23616 26.5857 8.75016 27.0487 8.12816 27.0487H6.55416C6.21116 27.0487 5.95716 26.7147 6.01516 26.3757L9.29616 5.25671C9.35416 4.91771 9.66716 4.65971 10.0432 4.65971H21.2732C21.6492 4.65971 21.9622 4.91771 22.0252 5.28671L26.0202 20.3897C26.1582 20.9287 26.6302 21.3187 27.1872 21.3187H30.1372C30.4802 21.3187 30.7342 21.6527 30.6762 21.9917L27.3952 33.1107C27.3372 33.4497 27.0242 33.7077 26.6482 33.7077H16.4182C15.9032 33.7077 15.4572 33.3707 15.3402 32.8757L14.6142 29.6947C14.5472 29.3707 14.8152 29.0727 15.1492 29.0727H16.4692C17.4842 29.0727 18.3742 28.3917 18.5952 27.3907L18.8022 26.4667C18.9352 25.9037 19.4102 25.5257 19.9872 25.5257H21.2092C21.5992 25.5257 21.9542 25.8147 22.0172 26.1987L22.2382 27.4437C22.3062 27.8067 21.9992 28.1107 21.6362 28.1107H19.9312V27.9817Z" fill="#253B80"/>
<path d="M49.2324 14.6741H40.6484C40.2724 14.6741 39.9594 14.4161 39.8964 14.0471L36.6154 0H47.8454C48.2214 0 48.5344 0.258001 48.5974 0.627001L51.8784 21.7461C51.9364 22.0851 51.6824 22.4191 51.3394 22.4191H42.1094C41.7664 22.4191 41.5124 22.0851 41.4544 21.7461L40.1714 13.7311C40.1134 13.3921 40.4264 13.1341 40.8024 13.1341H41.3644C43.3924 13.1341 45.1474 12.0841 46.0294 10.4751L46.5294 9.52707C46.6524 9.27807 46.9384 9.13907 47.2334 9.18307L50.2834 9.60707C50.5424 9.64507 50.7054 9.88607 50.6424 10.1341L49.2324 14.6741Z" fill="#179BD7"/>
<path d="M72.6975 14.6741H64.1135C63.7375 14.6741 63.4245 14.4161 63.3615 14.0471L60.0805 0H71.3105C71.6865 0 71.9995 0.258001 72.0625 0.627001L75.3435 21.7461C75.4015 22.0851 75.1475 22.4191 74.8045 22.4191H65.5745C65.2315 22.4191 64.9775 22.0851 64.9195 21.7461L63.6365 13.7311C63.5785 13.3921 63.8915 13.1341 64.2675 13.1341H64.8295C66.8575 13.1341 68.6125 12.0841 69.4945 10.4751L69.9945 9.52707C70.1175 9.27807 70.4035 9.13907 70.6985 9.18307L73.7485 9.60707C74.0075 9.64507 74.1705 9.88607 74.1075 10.1341L72.6975 14.6741Z" fill="#179BD7"/>
<path d="M95.3847 9.52707L94.8847 10.4751C93.9977 12.0841 92.2477 13.1341 90.2147 13.1341H89.6577C89.2817 13.1341 88.9687 13.3921 88.9107 13.7311L86.8567 26.9381C86.7237 27.4831 86.2487 27.8791 85.6857 27.8791H78.7357C78.3457 27.8791 77.9907 27.5901 77.9277 27.2061L77.7067 25.9611C77.6437 25.5881 77.9477 25.2571 78.3327 25.2571H79.3937C80.1997 25.2571 80.9137 24.7011 81.1127 23.9181L81.8117 21.2421C81.9547 20.7181 82.4207 20.3431 82.9827 20.3431H83.9367C85.6917 20.3431 87.2937 19.0941 87.6747 17.3551L87.9397 16.1601C87.9667 16.0361 87.8727 15.9191 87.7497 15.9191H86.7747C86.0277 15.9191 85.3657 16.4171 85.1757 17.1431L84.3087 20.3921C84.1657 20.9161 83.6997 21.2911 83.1377 21.2911H82.1837C80.7937 21.2911 79.6287 20.2701 79.4477 18.8991L77.9997 8.31207C77.9277 7.74007 77.4607 7.31707 76.8937 7.31707H74.1387C73.5717 7.31707 73.1047 7.74007 73.0327 8.31207L70.5527 25.9761C70.4757 26.5851 69.9897 27.0481 69.3677 27.0481H67.7937C67.4507 27.0481 67.1967 26.7141 67.2547 26.3751L71.3877 1.08007C71.4547 0.68007 71.7937 0.39907 72.1887 0.39907H74.7517C74.7567 0.39907 74.7617 0.39907 74.7667 0.39907C75.0847 0.43107 75.3517 0.65807 75.4287 0.98007L79.1477 15.9191H79.1527L83.0527 0.97507C83.1297 0.66907 83.3967 0.44207 83.7087 0.39907H86.2717C86.2767 0.39907 86.2817 0.39907 86.2867 0.39907C86.6347 0.43607 86.9257 0.70307 86.9887 1.04907L89.6497 17.0991L93.0417 1.04407C93.1087 0.68007 93.4217 0.39907 93.8167 0.39907H96.3797C96.3847 0.39907 96.3897 0.39907 96.3947 0.39907C96.7477 0.43607 97.0387 0.70307 97.1017 1.04907L99.5277 15.3241C99.6457 15.9711 99.2277 16.5861 98.5747 16.6991L95.8037 17.1991C95.5397 17.2431 95.2777 17.0391 95.2057 16.7661L94.0477 12.4191C93.8457 11.6471 93.1547 11.0991 92.3497 11.0991H91.3847C91.0367 11.0991 90.7567 10.8531 90.6997 10.5141L90.1997 7.68507C90.1367 7.35107 90.4167 7.07507 90.7547 7.07507H93.3177C93.3227 7.07507 93.3277 7.07507 93.3327 7.07507C93.9747 7.11207 94.5157 7.55407 94.6287 8.19007L95.7817 14.0991C95.8347 14.3991 95.6447 14.6791 95.3597 14.7371L92.3097 15.1611C91.9667 15.2051 91.6807 15.4721 91.6177 15.8061L90.7507 19.0551C90.6077 19.5791 90.1417 19.9541 89.5797 19.9541H88.6257C87.2357 19.9541 86.0707 20.9751 85.8897 22.3461L85.6687 23.5911C85.6007 23.9541 85.9077 24.2581 86.2707 24.2581H87.9757C88.5127 24.2581 88.9797 24.6811 89.0517 25.2531L89.2727 26.4981C89.3357 26.8821 89.6907 27.1711 90.0807 27.1711H92.8357C93.4027 27.1711 93.8697 26.7481 93.9417 26.1761L96.4217 8.51207C96.4987 7.90307 97.0127 7.41507 97.6397 7.41507H99.2137C99.5567 7.41507 99.8107 7.74907 99.7527 8.08807L97.3187 24.8621C97.1807 25.7311 96.4277 26.3751 95.5407 26.3751H93.0857C92.5487 26.3751 92.0817 25.9521 92.0097 25.3801L90.7977 17.1801C90.7157 16.6231 91.1527 16.1351 91.7247 16.1351H92.6997C92.8997 16.1351 93.0897 16.2431 93.1767 16.4171L95.3847 9.52707Z" fill="#179BD7"/>
</g>
<defs>
<clipPath id="clip0_10_1">
<rect width="100" height="40" fill="white"/>
</clipPath>
</defs>
</svg>
