<svg width="100" height="40" viewBox="0 0 100 40" fill="none" xmlns="http://www.w3.org/2000/svg">
<path d="M89.2771 13.1039H99.563C99.8101 13.1039 100 13.3014 100 13.5571V17.2068C100 17.4625 99.8101 17.6599 99.563 17.6599H89.2771C88.9919 17.6599 88.779 17.4625 88.779 17.2068V13.5571C88.779 13.3014 88.9919 13.1039 89.2771 13.1039Z" fill="#635BFF"/>
<path d="M89.2771 22.2599H99.563C99.8101 22.2599 100 22.4573 100 22.713V26.3627C100 26.6184 99.8101 26.8158 99.563 26.8158H89.2771C88.9919 26.8158 88.779 26.6184 88.779 26.3627V22.713C88.779 22.4573 88.9919 22.2599 89.2771 22.2599Z" fill="#635BFF"/>
<path d="M74.656 13.1039C74.9411 13.1039 75.1541 13.3014 75.1541 13.5571V26.3627C75.1541 26.6184 74.9411 26.8158 74.656 26.8158H64.3699C64.1228 26.8158 63.9199 26.6184 63.9199 26.3627V13.5571C63.9199 13.3014 64.1228 13.1039 64.3699 13.1039H74.656Z" fill="#635BFF"/>
<path fill-rule="evenodd" clip-rule="evenodd" d="M53.7285 13.1039C56.177 13.1039 58.1786 15.1054 58.1786 17.554V17.6378C58.1786 18.1288 58.575 18.5253 59.0661 18.5253C59.5571 18.5253 59.9536 18.1288 59.9536 17.6378V17.554C59.9536 14.0613 57.1828 11.2904 53.7285 11.2904C50.2743 11.2904 47.5034 14.0613 47.5034 17.554V22.3654C47.5034 24.814 49.5049 26.8155 51.9534 26.8155H53.7285C57.1828 26.8155 59.9536 24.0447 59.9536 20.552V19.9939C59.9536 19.5028 59.5571 19.1063 59.0661 19.1063C58.575 19.1063 58.1786 19.5028 58.1786 19.9939V20.552C58.1786 23.0006 56.177 25.002 53.7285 25.002H51.9534C50.6116 25.002 49.5127 23.8267 49.5127 22.3654V17.554C49.5127 16.1922 50.6116 15.0169 51.9534 15.0169H53.7285C54.4364 15.0169 55.0153 15.3297 55.4204 15.8202C55.8578 15.2815 56.467 14.9507 57.1544 14.9507C57.6455 14.9507 58.0419 15.3472 58.0419 15.8382C58.0419 16.3292 57.6455 16.7257 57.1544 16.7257C56.7016 16.7257 56.336 16.4404 56.1763 16.0371C55.9583 17.0008 55.1257 17.592 53.7285 17.592H51.9534C51.4624 17.592 51.0659 17.1955 51.0659 16.7045C51.0659 16.2135 51.4624 15.817 51.9534 15.817H53.7285C54.3178 15.817 54.7462 15.5852 54.9908 15.3406C54.6055 14.023 53.7285 13.1039 53.7285 13.1039Z" fill="#635BFF"/>
<path fill-rule="evenodd" clip-rule="evenodd" d="M35.7584 13.1039H46.0445C46.2916 13.1039 46.4945 13.3014 46.4945 13.5571V17.0348C46.4945 17.2905 46.2916 17.4879 46.0445 17.4879H38.1276V19.2826H45.1175C45.3646 19.2826 45.5675 19.48 45.5675 19.7357V22.9686C45.5675 23.2243 45.3646 23.4217 45.1175 23.4217H38.1276V26.3627C38.1276 26.6184 37.9247 26.8158 37.6776 26.8158H35.7584C35.5113 26.8158 35.3084 26.6184 35.3084 26.3627V13.5571C35.3084 13.3014 35.5113 13.1039 35.7584 13.1039ZM38.1276 15.0169V15.6744H44.1254V15.0169H38.1276Z" fill="#635BFF"/>
<path d="M27.2078 13.1039C27.4929 13.1039 27.7059 13.3014 27.7059 13.5571V26.3627C27.7059 26.6184 27.4929 26.8158 27.2078 26.8158H25.2886C25.0415 26.8158 24.8386 26.6184 24.8386 26.3627V13.5571C24.8386 13.3014 25.0415 13.1039 25.2886 13.1039H27.2078Z" fill="#635BFF"/>
<path fill-rule="evenodd" clip-rule="evenodd" d="M19.0574 13.1039C22.5117 13.1039 25.2825 15.8747 25.2825 19.3674C25.2825 22.8601 22.5117 25.631 19.0574 25.631C15.6032 25.631 12.8323 22.8601 12.8323 19.3674C12.8323 15.8747 15.6032 13.1039 19.0574 13.1039ZM19.0574 23.8179C21.5059 23.8179 23.5074 21.8164 23.5074 19.3674C23.5074 16.9188 21.5059 14.9174 19.0574 14.9174C16.6089 14.9174 14.6074 16.9188 14.6074 19.3674C14.6074 21.8164 16.6089 23.8179 19.0574 23.8179Z" fill="#635BFF"/>
<path d="M0.436996 13.1039H10.7231C10.9702 13.1039 11.1731 13.3014 11.1731 13.5571V17.0348C11.1731 17.2905 10.9702 17.4879 10.7231 17.4879H3.25617V19.2826H10.246C10.4931 19.2826 10.696 19.48 10.696 19.7357V22.9686C10.696 23.2243 10.4931 23.4217 10.246 23.4217H3.25617V26.3627C3.25617 26.6184 3.05325 26.8158 2.80618 26.8158H0.886996C0.639919 26.8158 0.436996 26.6184 0.436996 26.3627V13.5571C0.436996 13.3014 0.639919 13.1039 0.886996 13.1039H0.436996ZM3.25617 15.0169V15.6744H8.75401V15.0169H3.25617Z" fill="#635BFF"/>
</svg>
